<svg xmlns="http://www.w3.org/2000/svg" viewBox="0 0 24 24"><path d="M.06 24l1.69-6.16A11.9 11.9 0 0 1 .16 11.9C.16 5.34 5.5 0 12.06 0a11.9 11.9 0 0 1 11.9 11.9c0 6.57-5.34 11.9-11.9 11.9-2 0-3.97-.5-5.71-1.46L.06 24zm6.6-3.8c1.68 1 3.28 1.59 5.39 1.59 5.45 0 9.89-4.43 9.9-9.88 0-5.46-4.42-9.89-9.89-9.89-5.45 0-9.88 4.43-9.88 9.88 0 2.23.65 3.9 1.75 5.65l-1 3.65 3.73-.99zm11.37-5.47c-.07-.12-.27-.2-.57-.35-.3-.15-1.76-.87-2.03-.97-.27-.1-.47-.15-.67.15-.2.3-.77.97-.94 1.17-.17.2-.35.22-.65.07-.3-.15-1.26-.46-2.4-1.48-.89-.79-1.49-1.77-1.66-2.07-.17-.3-.02-.46.13-.61.13-.13.3-.35.45-.52.15-.17.2-.3.3-.5.1-.2.05-.37-.02-.52-.08-.15-.68-1.62-.92-2.22-.25-.58-.5-.5-.67-.51h-.57c-.2 0-.52.07-.79.37-.27.3-1.04 1.02-1.04 2.48 0 1.46 1.07 2.88 1.21 3.07.15.2 2.1 3.2 5.08 4.49.71.31 1.26.49 1.7.62.71.23 1.36.2 1.87.12.57-.08 1.76-.72 2.01-1.41.25-.7.25-1.29.17-1.41z" fill="#000"/></svg>